# xmcd CD database file
#
# Track frame offsets:
#	150
#	17434
#	34684
#	52094
#	69236
#	87810
#	102706
#	116842
#	136220
#	155239
#	171436
#	190357
#
# Disc length: 2826 seconds
#
# Revision: 0
# Processed by: cddbd v1.5.2PL0 Copyright (c) Steve Scherf et al.
# Submitted via: CDex 1.70beta2
#
DISCID=a80b080c
DTITLE=Various Artist - Black Club Hits
DYEAR=2008
DGENRE=Jazz
TTITLE0=Black Eyed Peas - Let's Get It Started
TTITLE1=The Pussycat Dolls and will.i.am - Beep
TTITLE2=Eve and Gwen Stefani - Let Me Blow Ya Mind
TTITLE3=Shaggy and Ricardo Ducent - It Wasn't Me
TTITLE4=Ja Rule and Ashanti - Always On Time
TTITLE5=Christina Milian - Dip It Low
TTITLE6=LL Cool J - Phenomenon
TTITLE7=DMX - Who We Be
TTITLE8=Sisqo - Thong Song
TTITLE9=Rihanna - Pon de Replay
TTITLE10=Black Eyed Peas - My Humps
TTITLE11=The Pussycat Dolls - Don't Cha
EXTD=YEAR: 2008
EXTT0=
EXTT1=
EXTT2=
EXTT3=
EXTT4=
EXTT5=
EXTT6=
EXTT7=
EXTT8=
EXTT9=
EXTT10=
EXTT11=
PLAYORDER=
